<svg xmlns="http://www.w3.org/2000/svg" width="456" height="251.79179376168454" viewBox="0 0 456 251.79179376168454" class="editor-view__logo-preview" data-v-8d8ae3dd="" data-v-b9d2a614=""><svg id="mark" viewBox="0 0 64 64" width="200" height="200" x="128" y="0" data-v-8d8ae3dd="" style="fill: rgb(73, 72, 87);"><rect x="0" y="0" width="100%" height="100%" fill="none" data-v-8d8ae3dd=""></rect><g data-v-8d8ae3dd=""><style xmlns="http://www.w3.org/2000/svg" type="text/css">	.st0{display:none;}
	.st1{display:inline;}</style><g xmlns="http://www.w3.org/2000/svg"><path d="M60.895,41.553C60.725,41.214,60.379,41,60,41h-2V22h2c0.352,0,0.677-0.185,0.857-0.485l3-5   c0.186-0.309,0.19-0.693,0.013-1.008C63.692,15.193,63.36,15,63,15H22H1c-0.36,0-0.692,0.193-0.87,0.507   c-0.178,0.314-0.173,0.699,0.013,1.008l3,5C3.323,21.815,3.648,22,4,22h2v19H4c-0.379,0-0.725,0.214-0.895,0.553l-3,6   c-0.155,0.31-0.139,0.678,0.044,0.973S0.653,49,1,49h21h41c0.347,0,0.668-0.18,0.851-0.475s0.199-0.663,0.044-0.973L60.895,41.553z    M19,41h-2V22h2h37v19H19z M59.434,20H57H20.766l1.8-3h38.667L59.434,20z M2.618,47l2-4H7c0.553,0,1-0.447,1-1V21   c0-0.553-0.447-1-1-1H4.566l-1.8-3h17.467l-1.8,3H16c-0.553,0-1,0.447-1,1v21c0,0.553,0.447,1,1,1h2.382l2,4H2.618z M22.618,47   l-2-4H57h2.382l2,4H22.618z"></path></g></g></svg><svg id="name" viewBox="0 0 456.541015625 43.84375" width="456" height="43.791793761684545" x="0" y="208" data-v-8d8ae3dd="" style="fill: rgb(73, 72, 87);"><rect x="0" y="0" width="100%" height="100%" fill="none" data-v-8d8ae3dd=""></rect><g data-v-8d8ae3dd=""><path xmlns="http://www.w3.org/2000/svg" d="M0 1.80L8.80 1.80L17.21 25.52L25.56 1.80L34.41 1.80L34.41 34.50L27.65 34.50L27.65 25.56L28.32 10.13L19.50 34.50L14.87 34.50L6.06 10.15L6.74 25.56L6.74 34.50L0 34.50L0 1.80ZM51.05 34.95L51.05 34.95Q45.71 34.95 42.35 31.67Q38.99 28.39 38.99 22.93L38.99 22.93L38.99 22.30Q38.99 18.64 40.41 15.76Q41.82 12.87 44.42 11.31Q47.01 9.75 50.33 9.75L50.33 9.75Q55.32 9.75 58.19 12.89Q61.05 16.04 61.05 21.81L61.05 21.81L61.05 24.46L45.57 24.46Q45.89 26.84 47.47 28.28Q49.05 29.72 51.48 29.72L51.48 29.72Q55.23 29.72 57.34 27.00L57.34 27.00L60.53 30.57Q59.07 32.64 56.58 33.79Q54.09 34.95 51.05 34.95ZM50.31 15.00L50.31 15.00Q48.38 15.00 47.18 16.31Q45.98 17.61 45.64 20.04L45.64 20.04L54.67 20.04L54.67 19.52Q54.63 17.36 53.50 16.18Q52.38 15.00 50.31 15.00ZM66.01 4.22L72.50 4.22L72.50 10.20L76.66 10.20L76.66 14.96L72.50 14.96L72.50 27.09Q72.50 28.44 73.02 29.02Q73.54 29.60 75.00 29.60L75.00 29.60Q76.08 29.60 76.91 29.45L76.91 29.45L76.91 34.37Q75.00 34.95 72.98 34.95L72.98 34.95Q66.15 34.95 66.01 28.05L66.01 28.05L66.01 14.96L62.46 14.96L62.46 10.20L66.01 10.20L66.01 4.22ZM100.92 34.50L94.36 34.50Q93.91 33.62 93.71 32.32L93.71 32.32Q91.35 34.95 87.58 34.95L87.58 34.95Q84.00 34.95 81.66 32.88Q79.31 30.82 79.31 27.67L79.31 27.67Q79.31 23.81 82.17 21.74Q85.04 19.68 90.45 19.65L90.45 19.65L93.44 19.65L93.44 18.26Q93.44 16.58 92.57 15.57Q91.71 14.55 89.84 14.55L89.84 14.55Q88.20 14.55 87.27 15.34Q86.34 16.13 86.34 17.50L86.34 17.50L79.85 17.50Q79.85 15.39 81.15 13.59Q82.45 11.79 84.83 10.77Q87.22 9.75 90.18 9.75L90.18 9.75Q94.67 9.75 97.31 12.01Q99.95 14.26 99.95 18.35L99.95 18.35L99.95 28.88Q99.97 32.34 100.92 34.12L100.92 34.12L100.92 34.50ZM88.99 29.99L88.99 29.99Q90.43 29.99 91.64 29.35Q92.85 28.71 93.44 27.63L93.44 27.63L93.44 23.45L91.01 23.45Q86.14 23.45 85.82 26.82L85.82 26.82L85.80 27.20Q85.80 28.41 86.65 29.20Q87.51 29.99 88.99 29.99ZM111.79 0L111.79 34.50L105.27 34.50L105.27 0L111.79 0ZM117.13 10.20L123.22 10.20L123.42 12.92Q126.01 9.75 130.41 9.75L130.41 9.75Q135.10 9.75 136.85 13.45L136.85 13.45Q139.42 9.75 144.15 9.75L144.15 9.75Q148.11 9.75 150.04 12.05Q151.97 14.35 151.97 18.98L151.97 18.98L151.97 34.50L145.46 34.50L145.46 19.00Q145.46 16.94 144.65 15.98Q143.84 15.03 141.80 15.03L141.80 15.03Q138.88 15.03 137.75 17.81L137.75 17.81L137.78 34.50L131.28 34.50L131.28 19.02Q131.28 16.91 130.45 15.97Q129.62 15.03 127.62 15.03L127.62 15.03Q124.86 15.03 123.63 17.32L123.63 17.32L123.63 34.50L117.13 34.50L117.13 10.20ZM168.14 34.95L168.14 34.95Q162.80 34.95 159.44 31.67Q156.08 28.39 156.08 22.93L156.08 22.93L156.08 22.30Q156.08 18.64 157.50 15.76Q158.91 12.87 161.51 11.31Q164.10 9.75 167.42 9.75L167.42 9.75Q172.41 9.75 175.27 12.89Q178.14 16.04 178.14 21.81L178.14 21.81L178.14 24.46L162.66 24.46Q162.98 26.84 164.56 28.28Q166.14 29.72 168.57 29.72L168.57 29.72Q172.32 29.72 174.43 27.00L174.43 27.00L177.62 30.57Q176.16 32.64 173.67 33.79Q171.17 34.95 168.14 34.95ZM167.40 15.00L167.40 15.00Q165.47 15.00 164.27 16.31Q163.07 17.61 162.73 20.04L162.73 20.04L171.76 20.04L171.76 19.52Q171.71 17.36 170.59 16.18Q169.47 15.00 167.40 15.00ZM191.93 29.72L191.93 29.72Q193.73 29.72 194.85 28.73Q195.97 27.74 196.02 26.10L196.02 26.10L202.10 26.10Q202.08 28.57 200.76 30.63Q199.43 32.68 197.13 33.81Q194.83 34.95 192.04 34.95L192.04 34.95Q186.83 34.95 183.82 31.64Q180.81 28.32 180.81 22.48L180.81 22.48L180.81 22.06Q180.81 16.44 183.80 13.09Q186.79 9.75 192.00 9.75L192.00 9.75Q196.56 9.75 199.31 12.34Q202.06 14.94 202.10 19.25L202.10 19.25L196.02 19.25Q195.97 17.36 194.85 16.18Q193.73 15.00 191.88 15.00L191.88 15.00Q189.62 15.00 188.46 16.65Q187.30 18.31 187.30 22.01L187.30 22.01L187.30 22.69Q187.30 26.44 188.45 28.08Q189.59 29.72 191.93 29.72ZM226.45 34.50L219.89 34.50Q219.44 33.62 219.24 32.32L219.24 32.32Q216.88 34.95 213.11 34.95L213.11 34.95Q209.54 34.95 207.19 32.88Q204.84 30.82 204.84 27.67L204.84 27.67Q204.84 23.81 207.71 21.74Q210.57 19.68 215.98 19.65L215.98 19.65L218.97 19.65L218.97 18.26Q218.97 16.58 218.11 15.57Q217.24 14.55 215.38 14.55L215.38 14.55Q213.74 14.55 212.81 15.34Q211.87 16.13 211.87 17.50L211.87 17.50L205.38 17.50Q205.38 15.39 206.69 13.59Q207.99 11.79 210.37 10.77Q212.75 9.75 215.71 9.75L215.71 9.75Q220.21 9.75 222.85 12.01Q225.49 14.26 225.49 18.35L225.49 18.35L225.49 28.88Q225.51 32.34 226.45 34.12L226.45 34.12L226.45 34.50ZM214.52 29.99L214.52 29.99Q215.96 29.99 217.17 29.35Q218.39 28.71 218.97 27.63L218.97 27.63L218.97 23.45L216.55 23.45Q211.67 23.45 211.36 26.82L211.36 26.82L211.33 27.20Q211.33 28.41 212.19 29.20Q213.04 29.99 214.52 29.99ZM212.57 6.96L217.00 0L224.07 0L217.85 6.96L212.57 6.96ZM230.34 10.20L236.45 10.20L236.65 13.00Q239.25 9.75 243.63 9.75L243.63 9.75Q247.50 9.75 249.38 12.02Q251.27 14.29 251.32 18.80L251.32 18.80L251.32 34.50L244.82 34.50L244.82 18.96Q244.82 16.89 243.93 15.96Q243.03 15.03 240.94 15.03L240.94 15.03Q238.20 15.03 236.83 17.36L236.83 17.36L236.83 34.50L230.34 34.50L230.34 10.20ZM263.08 10.20L263.08 34.50L256.57 34.50L256.57 10.20L263.08 10.20ZM256.19 3.91L256.19 3.91Q256.19 2.45 257.17 1.50Q258.14 0.56 259.83 0.56L259.83 0.56Q261.49 0.56 262.48 1.50Q263.47 2.45 263.47 3.91L263.47 3.91Q263.47 5.39 262.47 6.33Q261.47 7.28 259.83 7.28Q258.19 7.28 257.19 6.33Q256.19 5.39 256.19 3.91ZM278.54 29.72L278.54 29.72Q280.33 29.72 281.46 28.73Q282.58 27.74 282.63 26.10L282.63 26.10L288.71 26.10Q288.69 28.57 287.37 30.63Q286.04 32.68 283.74 33.81Q281.44 34.95 278.65 34.95L278.65 34.95Q273.44 34.95 270.43 31.64Q267.42 28.32 267.42 22.48L267.42 22.48L267.42 22.06Q267.42 16.44 270.41 13.09Q273.39 9.75 278.61 9.75L278.61 9.75Q283.17 9.75 285.92 12.34Q288.67 14.94 288.71 19.25L288.71 19.25L282.63 19.25Q282.58 17.36 281.46 16.18Q280.33 15.00 278.49 15.00L278.49 15.00Q276.22 15.00 275.07 16.65Q273.91 18.31 273.91 22.01L273.91 22.01L273.91 22.69Q273.91 26.44 275.06 28.08Q276.20 29.72 278.54 29.72ZM313.06 34.50L306.50 34.50Q306.05 33.62 305.85 32.32L305.85 32.32Q303.49 34.95 299.72 34.95L299.72 34.95Q296.15 34.95 293.80 32.88Q291.45 30.82 291.45 27.67L291.45 27.67Q291.45 23.81 294.32 21.74Q297.18 19.68 302.59 19.65L302.59 19.65L305.58 19.65L305.58 18.26Q305.58 16.58 304.72 15.57Q303.85 14.55 301.99 14.55L301.99 14.55Q300.35 14.55 299.42 15.34Q298.48 16.13 298.48 17.50L298.48 17.50L291.99 17.50Q291.99 15.39 293.29 13.59Q294.60 11.79 296.98 10.77Q299.36 9.75 302.32 9.75L302.32 9.75Q306.82 9.75 309.46 12.01Q312.09 14.26 312.09 18.35L312.09 18.35L312.09 28.88Q312.12 32.34 313.06 34.12L313.06 34.12L313.06 34.50ZM301.13 29.99L301.13 29.99Q302.57 29.99 303.78 29.35Q305.00 28.71 305.58 27.63L305.58 27.63L305.58 23.45L303.16 23.45Q298.28 23.45 297.97 26.82L297.97 26.82L297.94 27.20Q297.94 28.41 298.80 29.20Q299.65 29.99 301.13 29.99ZM323.08 1.80L329.21 13.07L335.34 1.80L343.09 1.80L333.57 18.01L343.34 34.50L335.50 34.50L329.21 23.04L322.92 34.50L315.08 34.50L324.85 18.01L315.33 1.80L323.08 1.80ZM368.18 22.24L368.18 22.57Q368.18 28.19 365.63 31.57Q363.08 34.95 358.75 34.95L358.75 34.95Q355.06 34.95 352.79 32.39L352.79 32.39L352.79 43.84L346.30 43.84L346.30 10.20L352.32 10.20L352.55 12.58Q354.91 9.75 358.70 9.75L358.70 9.75Q363.19 9.75 365.69 13.07Q368.18 16.40 368.18 22.24L368.18 22.24ZM361.69 22.10L361.69 22.10Q361.69 18.71 360.49 16.87Q359.29 15.03 356.99 15.03L356.99 15.03Q353.94 15.03 352.79 17.36L352.79 17.36L352.79 27.31Q353.98 29.72 357.04 29.72L357.04 29.72Q361.69 29.72 361.69 22.10ZM385.95 10.04L385.86 16.28Q384.53 16.10 383.52 16.10L383.52 16.10Q379.84 16.10 378.69 18.60L378.69 18.60L378.69 34.50L372.20 34.50L372.20 10.20L378.33 10.20L378.51 13.09Q380.47 9.75 383.92 9.75L383.92 9.75Q385.00 9.75 385.95 10.04L385.95 10.04ZM399.74 34.95L399.74 34.95Q394.39 34.95 391.03 31.67Q387.68 28.39 387.68 22.93L387.68 22.93L387.68 22.30Q387.68 18.64 389.09 15.76Q390.51 12.87 393.10 11.31Q395.69 9.75 399.02 9.75L399.02 9.75Q404.00 9.75 406.87 12.89Q409.73 16.04 409.73 21.81L409.73 21.81L409.73 24.46L394.26 24.46Q394.57 26.84 396.15 28.28Q397.74 29.72 400.16 29.72L400.16 29.72Q403.92 29.72 406.03 27.00L406.03 27.00L409.22 30.57Q407.76 32.64 405.26 33.79Q402.77 34.95 399.74 34.95ZM399.00 15.00L399.00 15.00Q397.06 15.00 395.86 16.31Q394.66 17.61 394.32 20.04L394.32 20.04L403.35 20.04L403.35 19.52Q403.31 17.36 402.19 16.18Q401.06 15.00 399.00 15.00ZM426.58 27.78L426.58 27.78Q426.58 26.59 425.40 25.91Q424.22 25.22 421.61 24.68L421.61 24.68Q412.94 22.87 412.94 17.32L412.94 17.32Q412.94 14.08 415.63 11.92Q418.31 9.75 422.65 9.75L422.65 9.75Q427.27 9.75 430.05 11.93Q432.82 14.11 432.82 17.59L432.82 17.59L426.33 17.59Q426.33 16.19 425.43 15.28Q424.53 14.38 422.63 14.38L422.63 14.38Q420.99 14.38 420.09 15.12Q419.19 15.86 419.19 17.00L419.19 17.00Q419.19 18.08 420.21 18.74Q421.23 19.41 423.66 19.89Q426.08 20.37 427.75 20.98L427.75 20.98Q432.89 22.87 432.89 27.51L432.89 27.51Q432.89 30.84 430.04 32.89Q427.18 34.95 422.67 34.95L422.67 34.95Q419.62 34.95 417.25 33.86Q414.88 32.77 413.53 30.87Q412.18 28.97 412.18 26.77L412.18 26.77L418.33 26.77Q418.42 28.50 419.62 29.42Q420.81 30.34 422.80 30.34L422.80 30.34Q424.67 30.34 425.62 29.64Q426.58 28.93 426.58 27.78ZM450.23 27.78L450.23 27.78Q450.23 26.59 449.05 25.91Q447.87 25.22 445.27 24.68L445.27 24.68Q436.60 22.87 436.60 17.32L436.60 17.32Q436.60 14.08 439.28 11.92Q441.96 9.75 446.30 9.75L446.30 9.75Q450.93 9.75 453.70 11.93Q456.47 14.11 456.47 17.59L456.47 17.59L449.98 17.59Q449.98 16.19 449.08 15.28Q448.19 14.38 446.28 14.38L446.28 14.38Q444.64 14.38 443.74 15.12Q442.84 15.86 442.84 17.00L442.84 17.00Q442.84 18.08 443.86 18.74Q444.88 19.41 447.31 19.89Q449.74 20.37 451.40 20.98L451.40 20.98Q456.54 22.87 456.54 27.51L456.54 27.51Q456.54 30.84 453.69 32.89Q450.84 34.95 446.32 34.95L446.32 34.95Q443.27 34.95 440.90 33.86Q438.53 32.77 437.18 30.87Q435.83 28.97 435.83 26.77L435.83 26.77L441.99 26.77Q442.08 28.50 443.27 29.42Q444.46 30.34 446.46 30.34L446.46 30.34Q448.32 30.34 449.27 29.64Q450.23 28.93 450.23 27.78Z"></path></g></svg><!----></svg>